<svg xmlns="http://www.w3.org/2000/svg" width="554" height="252" viewBox="0 0 554 252">
<g>
<path d="M 103.98 205.38 L 100.81 211.00 L 61.63 211.00 L 64.22 208.25 C65.65,206.74 70.97,198.98 76.04,191.00 C81.12,183.02 90.75,168.18 97.45,158.00 C107.98,142.02 127.17,112.54 148.45,79.69 C151.73,74.64 157.46,65.84 161.20,60.14 C164.94,54.44 168.00,48.93 168.00,47.89 C168.00,46.10 169.04,46.00 187.00,46.00 C199.22,46.00 206.00,46.36 206.00,47.02 C206.00,48.38 197.36,62.48 189.27,74.32 C186.95,77.72 183.92,82.53 182.54,85.00 C181.17,87.47 178.71,91.30 177.08,93.50 C175.44,95.70 171.72,101.25 168.80,105.84 C165.89,110.43 159.19,120.78 153.91,128.84 C148.64,136.90 141.27,148.23 137.54,154.00 C123.60,175.55 120.84,179.74 114.08,189.63 C110.27,195.20 105.73,202.28 103.98,205.38 ZM 31.29 209.00 C31.68,210.49 31.32,211.00 29.87,211.00 C28.24,211.00 28.10,210.68 29.00,209.00 C29.59,207.90 30.23,207.00 30.42,207.00 C30.61,207.00 31.00,207.90 31.29,209.00 ZM 501.50 126.00 C500.78,127.17 498.99,127.35 499.02,126.25 C499.05,124.47 500.76,122.81 501.43,123.89 C501.81,124.50 501.84,125.45 501.50,126.00 ZM 364.75 164.75 C365.33,166.48 363.79,166.25 362.12,164.36 C360.92,163.01 360.98,162.85 362.54,163.15 C363.52,163.34 364.52,164.06 364.75,164.75 ZM 482.77 100.81 C483.37,102.61 481.30,102.23 480.61,100.42 C480.23,99.44 480.46,98.99 481.19,99.23 C481.84,99.45 482.55,100.16 482.77,100.81 ZM 452.00 173.00 C452.00,173.55 451.30,174.00 450.44,174.00 C449.58,174.00 449.16,173.55 449.50,173.00 C449.84,172.45 450.54,172.00 451.06,172.00 C451.58,172.00 452.00,172.45 452.00,173.00 ZM 440.00 126.06 C440.00,126.58 439.55,127.00 439.00,127.00 C438.45,127.00 438.00,126.30 438.00,125.44 C438.00,124.58 438.45,124.16 439.00,124.50 C439.55,124.84 440.00,125.54 440.00,126.06 ZM 413.60 163.27 C413.94,163.60 414.02,164.44 413.79,165.14 C413.45,166.15 413.21,166.15 412.58,165.13 C411.75,163.78 412.59,162.25 413.60,163.27 ZM 392.00 164.00 C392.00,164.55 391.55,165.00 391.00,165.00 C390.45,165.00 390.00,164.55 390.00,164.00 C390.00,163.45 390.45,163.00 391.00,163.00 C391.55,163.00 392.00,163.45 392.00,164.00 Z" fill="rgb(31,56,100)"/>
<path d="M 115.78 211.04 C123.87,211.34 107.46,211.68 79.31,211.79 C51.15,211.91 27.89,211.63 27.61,211.19 C27.34,210.74 29.90,206.10 33.31,200.88 C36.71,195.66 42.40,186.91 45.94,181.44 C52.73,170.95 64.78,152.54 86.46,119.50 C93.68,108.50 106.29,89.15 114.48,76.50 C122.67,63.85 130.90,51.59 132.76,49.25 L 136.13 45.00 L 186.01 45.00 C213.44,45.00 236.09,45.34 236.35,45.75 C236.60,46.16 229.99,46.38 221.66,46.24 L 206.50 45.97 L 206.00 47.01 C205.93,46.36 199.16,46.00 187.00,46.00 C169.04,46.00 168.00,46.10 168.00,47.89 C168.00,48.93 164.94,54.44 161.20,60.14 C157.46,65.84 151.73,74.64 148.45,79.69 C127.17,112.54 107.98,142.02 97.45,158.00 C90.75,168.18 81.12,183.02 76.04,191.00 C70.97,198.98 65.65,206.74 64.22,208.25 L 61.63 211.00 L 100.81 211.00 L 101.09 210.50 ZM 399.70 127.04 C395.52,129.59 385.89,129.70 381.03,127.25 C376.32,124.87 374.24,120.82 372.91,111.43 C370.80,96.50 373.68,83.60 380.11,79.17 C383.08,77.12 384.45,76.87 391.15,77.17 C399.87,77.55 402.13,78.90 405.08,85.50 C408.80,93.81 408.43,114.39 404.43,122.14 C403.59,123.76 401.46,125.97 399.70,127.04 ZM 325.10 126.71 C322.45,128.50 320.37,128.99 315.60,128.94 C308.16,128.86 306.09,128.08 302.74,124.10 C299.10,119.78 297.65,111.65 298.24,98.95 C298.79,87.33 300.01,83.85 305.04,79.62 C307.72,77.37 309.08,77.00 314.83,77.00 C323.00,77.01 327.01,79.14 330.05,85.09 C333.90,92.65 333.75,113.52 329.77,121.78 C329.07,123.24 326.97,125.45 325.10,126.71 ZM 426.00 119.08 L 426.00 128.00 L 420.47 128.00 C416.92,128.00 414.76,127.54 414.45,126.73 C414.18,126.03 414.08,114.89 414.23,101.98 L 414.50 78.50 L 427.82 78.22 L 441.14 77.94 L 444.57 81.37 C447.65,84.45 448.00,85.36 448.00,90.37 C448.00,95.12 447.56,96.43 445.00,99.35 C443.35,101.23 442.00,102.98 442.00,103.23 C442.00,103.49 443.35,105.12 445.00,106.84 C447.88,109.86 448.00,110.35 448.00,118.99 L 448.00 128.00 L 443.06 128.00 C440.34,128.00 437.86,127.59 437.55,127.09 C437.24,126.58 436.71,122.65 436.36,118.34 C435.66,109.61 434.19,107.00 429.95,107.00 C426.42,107.00 426.00,108.27 426.00,119.08 ZM 502.02 114.75 L 502.00 128.00 L 492.00 128.00 L 492.00 77.91 L 498.75 78.20 L 505.50 78.50 L 507.78 87.00 C509.04,91.68 510.66,97.75 511.39,100.50 C512.21,103.56 513.35,105.62 514.33,105.82 C515.74,106.10 515.98,104.35 516.22,91.82 L 516.50 77.50 L 520.50 77.78 C522.70,77.94 525.06,78.26 525.75,78.50 C526.70,78.83 527.00,84.75 527.00,103.51 L 527.00 128.09 L 513.53 127.50 L 509.80 114.09 C504.10,93.54 502.04,93.72 502.02,114.75 ZM 349.54 208.75 C348.86,211.92 348.71,212.00 343.59,212.00 C339.28,212.00 338.32,211.68 338.24,210.25 C338.16,208.56 340.34,198.26 345.92,174.00 L 348.56 162.50 L 356.28 162.21 C363.53,161.93 364.06,162.06 364.94,164.21 C365.89,166.53 374.25,201.31 375.54,208.30 L 376.24 212.11 L 370.37 211.80 C364.67,211.51 364.49,211.41 364.16,208.50 C363.66,204.06 362.28,203.00 357.00,203.00 C351.76,203.00 350.57,203.92 349.54,208.75 ZM 306.58 212.00 C304.70,212.00 302.52,212.25 301.74,212.55 C298.62,213.74 298.27,210.63 298.77,186.20 L 299.27 161.90 L 304.38 162.20 L 309.50 162.50 L 309.80 170.45 C309.96,174.83 310.58,178.99 311.17,179.70 C312.52,181.33 318.20,181.40 319.80,179.80 C320.54,179.06 321.00,175.41 321.00,170.25 L 321.00 161.90 L 331.50 162.50 L 331.77 187.25 L 332.03 212.00 L 321.07 212.00 L 320.78 201.75 L 320.50 191.50 L 316.68 191.19 C310.71,190.69 310.00,191.90 310.00,202.62 L 310.00 212.00 ZM 408.39 210.91 C406.21,212.62 404.33,213.00 398.00,213.00 C391.67,213.00 389.79,212.62 387.61,210.91 C382.02,206.51 381.55,204.30 381.52,182.50 L 381.50 162.50 L 392.50 162.50 L 392.77 182.45 C393.00,199.24 393.30,202.68 394.68,204.20 C396.48,206.18 398.70,206.47 401.00,205.02 C402.23,204.25 402.59,200.29 403.00,183.29 L 403.50 162.50 L 414.50 162.50 L 414.46 182.50 C414.41,204.29 413.93,206.55 408.39,210.91 ZM 446.93 211.25 C441.96,213.78 430.56,213.64 426.23,211.00 C422.80,208.91 421.00,205.59 421.00,201.38 C421.00,199.04 421.28,198.91 425.67,199.20 C429.69,199.46 430.58,199.93 432.01,202.50 C433.34,204.91 434.32,205.50 437.04,205.50 C439.66,205.50 440.76,204.90 441.91,202.84 C444.38,198.45 442.29,195.67 433.06,191.03 C424.04,186.49 421.87,183.95 421.29,177.19 C420.47,167.66 426.94,161.00 437.00,161.00 C440.14,161.00 444.11,161.49 445.82,162.09 C449.40,163.33 453.00,168.50 453.00,172.37 C453.00,174.85 452.72,175.00 448.12,175.00 C443.66,175.00 443.14,174.75 442.01,172.03 C441.34,170.40 439.95,168.80 438.93,168.48 C434.40,167.04 430.41,172.98 433.15,177.10 C433.90,178.24 438.09,181.04 442.45,183.33 C452.30,188.51 454.43,191.21 454.43,198.50 C454.43,204.85 452.26,208.53 446.93,211.25 ZM 485.80 124.41 L 485.50 127.50 L 470.75 127.78 C462.64,127.93 455.99,127.70 455.98,127.28 C455.90,124.80 455.85,80.28 455.92,79.22 C455.98,78.24 459.24,78.01 470.25,78.22 L 484.50 78.50 L 484.50 86.50 L 477.04 86.80 C472.94,86.96 469.01,87.58 468.29,88.17 C466.62,89.56 466.62,95.44 468.29,96.83 C469.00,97.42 472.71,98.03 476.54,98.20 L 483.50 98.50 L 483.50 106.50 L 476.45 106.16 C467.91,105.74 466.75,106.69 467.19,113.67 L 467.50 118.50 L 475.45 118.80 C479.83,118.96 484.01,119.60 484.75,120.21 C485.50,120.83 485.97,122.70 485.80,124.41 ZM 359.50 87.50 L 358.50 127.50 L 352.77 127.80 L 347.04 128.10 L 346.77 107.80 L 346.50 87.50 L 341.75 87.20 L 337.00 86.89 L 337.00 78.30 L 345.25 77.74 C349.79,77.43 356.88,77.48 361.00,77.84 L 368.50 78.50 L 368.50 86.50 ZM 386.58 120.09 C387.53,121.14 389.39,122.00 390.71,122.00 C394.93,122.00 396.24,116.73 395.84,101.41 C395.55,90.13 395.22,87.90 393.60,86.10 C391.06,83.30 388.41,83.45 386.41,86.50 C383.94,90.26 384.08,117.32 386.58,120.09 ZM 311.60 119.83 C313.71,122.85 317.97,122.42 319.76,119.00 C321.60,115.48 321.08,88.00 319.13,85.65 C317.19,83.32 313.39,83.60 311.56,86.22 C309.26,89.50 309.29,116.55 311.60,119.83 ZM 426.61 98.42 C427.60,101.00 432.56,100.38 434.93,97.37 C438.33,93.04 437.16,87.77 432.37,85.95 C428.07,84.32 426.00,86.27 426.00,91.95 C426.00,94.64 426.27,97.55 426.61,98.42 ZM 352.70 193.66 C353.08,194.64 354.42,195.01 356.88,194.80 L 360.50 194.50 L 360.25 187.50 C359.84,176.16 357.30,170.55 355.13,176.17 C353.78,179.65 352.06,192.00 352.70,193.66 ZM 31.29 209.00 C31.00,207.90 30.61,207.00 30.42,207.00 C30.23,207.00 29.59,207.90 29.00,209.00 C28.10,210.68 28.24,211.00 29.87,211.00 C31.32,211.00 31.68,210.49 31.29,209.00 ZM 501.50 126.00 C501.84,125.45 501.81,124.50 501.43,123.89 C500.76,122.81 499.05,124.47 499.02,126.25 C498.99,127.35 500.78,127.17 501.50,126.00 ZM 364.75 164.75 C364.52,164.06 363.52,163.34 362.54,163.15 C360.98,162.85 360.92,163.01 362.12,164.36 C363.79,166.25 365.33,166.48 364.75,164.75 ZM 482.77 100.81 C482.55,100.16 481.84,99.45 481.19,99.23 C480.46,98.99 480.23,99.44 480.61,100.42 C481.30,102.23 483.37,102.61 482.77,100.81 ZM 452.00 173.00 C452.00,172.45 451.58,172.00 451.06,172.00 C450.54,172.00 449.84,172.45 449.50,173.00 C449.16,173.55 449.58,174.00 450.44,174.00 C451.30,174.00 452.00,173.55 452.00,173.00 ZM 440.00 126.06 C440.00,125.54 439.55,124.84 439.00,124.50 C438.45,124.16 438.00,124.58 438.00,125.44 C438.00,126.30 438.45,127.00 439.00,127.00 C439.55,127.00 440.00,126.58 440.00,126.06 ZM 413.60 163.27 C412.59,162.25 411.75,163.78 412.58,165.13 C413.21,166.15 413.45,166.15 413.79,165.14 C414.02,164.44 413.94,163.60 413.60,163.27 ZM 392.00 164.00 C392.00,163.45 391.55,163.00 391.00,163.00 C390.45,163.00 390.00,163.45 390.00,164.00 C390.00,164.55 390.45,165.00 391.00,165.00 C391.55,165.00 392.00,164.55 392.00,164.00 ZM 202.89 53.04 C200.43,57.33 196.30,63.86 191.71,70.71 C195.99,64.29 200.17,57.67 202.89,53.04 ZM 103.98 205.38 C105.68,202.37 110.02,195.60 113.76,190.11 C110.15,195.42 105.97,201.93 104.28,204.89 L 103.29 206.61 Z" fill="rgb(52,86,147)"/>
<path d="M 115.78 211.04 L 101.09 210.50 L 103.29 206.61 L 104.28 204.89 C105.97,201.93 110.15,195.42 113.75,190.11 L 113.76 190.11 C113.87,189.94 113.97,189.79 114.08,189.63 C120.84,179.74 123.60,175.55 137.54,154.00 C141.27,148.23 148.64,136.90 153.91,128.84 C159.19,120.78 165.89,110.43 168.80,105.84 C171.72,101.25 175.44,95.70 177.08,93.50 C178.71,91.30 181.17,87.47 182.54,85.00 C183.92,82.53 186.95,77.72 189.27,74.32 C190.08,73.13 190.90,71.92 191.71,70.71 C196.30,63.86 200.43,57.33 202.89,53.04 C204.81,49.79 206.00,47.53 206.00,47.02 C206.00,47.01 206.00,47.01 206.00,47.01 L 206.50 45.97 L 221.66 46.24 C229.99,46.38 236.60,46.16 236.35,45.75 C236.29,45.66 235.05,45.56 232.85,45.48 L 236.50 45.50 L 236.78 60.43 C237.21,83.78 238.30,83.59 253.30,57.50 C256.62,51.71 258.14,48.84 260.52,47.40 C262.89,45.99 266.10,45.99 272.78,46.00 C273.30,46.00 273.85,46.00 274.42,46.00 L 287.50 46.00 L 287.50 130.50 L 274.75 130.78 C264.93,131.00 261.99,130.77 261.96,129.78 C261.94,129.08 261.95,120.48 262.00,110.68 L 262.08 92.86 L 259.47 93.18 C256.85,93.50 255.13,96.11 238.58,125.00 L 235.42 130.50 L 224.96 131.02 C219.21,131.31 214.08,131.21 213.57,130.79 C213.06,130.38 212.61,121.82 212.57,111.77 C212.50,94.19 212.42,93.50 210.50,93.50 C208.56,93.50 199.38,106.81 167.88,155.25 C163.14,162.54 154.55,175.70 148.80,184.50 C143.04,193.30 137.17,202.34 135.76,204.59 C134.34,206.84 132.43,209.43 131.52,210.34 C130.01,211.84 125.05,212.00 78.99,212.00 C51.04,212.00 27.95,211.63 27.62,211.19 C27.95,211.63 51.19,211.91 79.31,211.79 C107.46,211.68 123.87,211.34 115.78,211.04 ZM 139.71 45.00 L 136.13 45.00 L 136.15 44.98 Z" fill="rgb(61,61,62)"/>
<path d="M 0.00 126.00 L 0.00 0.00 L 277.00 0.00 L 554.00 0.00 L 554.00 126.00 L 554.00 252.00 L 277.00 252.00 L 0.00 252.00 L 0.00 126.00 ZM 306.58 212.00 L 310.00 212.00 L 310.00 202.62 C310.00,191.90 310.71,190.69 316.68,191.19 L 320.50 191.50 L 320.78 201.75 L 321.07 212.00 L 326.55 212.00 L 332.03 212.00 L 331.77 187.25 L 331.50 162.50 L 326.25 162.20 L 321.00 161.90 L 321.00 170.25 C321.00,175.41 320.54,179.06 319.80,179.80 C318.20,181.40 312.52,181.33 311.17,179.70 C310.58,178.99 309.96,174.83 309.80,170.45 L 309.50 162.50 L 304.38 162.20 L 299.27 161.90 L 298.77 186.20 C298.27,210.63 298.62,213.74 301.74,212.55 C302.52,212.25 304.70,212.00 306.58,212.00 ZM 408.39 210.91 C413.93,206.55 414.41,204.29 414.46,182.50 L 414.50 162.50 L 409.00 162.50 L 403.50 162.50 L 403.00 183.29 C402.59,200.29 402.23,204.25 401.00,205.02 C398.70,206.47 396.48,206.18 394.68,204.20 C393.30,202.68 393.00,199.24 392.77,182.45 L 392.50 162.50 L 387.00 162.50 L 381.50 162.50 L 381.52 182.50 C381.55,204.30 382.02,206.51 387.61,210.91 C389.79,212.62 391.67,213.00 398.00,213.00 C404.33,213.00 406.21,212.62 408.39,210.91 ZM 446.93 211.25 C452.26,208.53 454.43,204.85 454.43,198.50 C454.43,191.21 452.30,188.51 442.45,183.33 C438.09,181.04 433.90,178.24 433.15,177.10 C430.41,172.98 434.40,167.04 438.93,168.48 C439.95,168.80 441.34,170.40 442.01,172.03 C443.14,174.75 443.66,175.00 448.12,175.00 C452.72,175.00 453.00,174.85 453.00,172.37 C453.00,168.50 449.40,163.33 445.82,162.09 C444.11,161.49 440.14,161.00 437.00,161.00 C426.94,161.00 420.47,167.66 421.29,177.19 C421.87,183.95 424.04,186.49 433.06,191.03 C442.29,195.67 444.38,198.45 441.91,202.84 C440.76,204.90 439.66,205.50 437.04,205.50 C434.32,205.50 433.34,204.91 432.01,202.50 C430.58,199.93 429.69,199.46 425.67,199.20 C421.28,198.91 421.00,199.04 421.00,201.38 C421.00,205.59 422.80,208.91 426.23,211.00 C430.56,213.64 441.96,213.78 446.93,211.25 ZM 131.52 210.34 C132.43,209.43 134.34,206.84 135.76,204.59 C137.17,202.34 143.04,193.30 148.80,184.50 C154.55,175.70 163.14,162.54 167.88,155.25 C199.38,106.81 208.56,93.50 210.50,93.50 C212.42,93.50 212.50,94.19 212.57,111.77 C212.61,121.82 213.06,130.38 213.57,130.79 C214.08,131.21 219.21,131.31 224.96,131.02 L 235.42 130.50 L 238.58 125.00 C255.13,96.11 256.85,93.50 259.47,93.18 L 262.08 92.86 L 262.00 110.68 C261.95,120.48 261.94,129.08 261.96,129.78 C261.99,130.77 264.93,131.00 274.75,130.78 L 287.50 130.50 L 287.50 88.25 L 287.50 46.00 L 274.42 46.00 C259.31,46.00 260.18,45.53 253.30,57.50 C238.30,83.59 237.21,83.78 236.78,60.43 L 236.50 45.50 L 186.32 45.24 L 136.15 44.98 L 132.76 49.24 C130.90,51.58 122.67,63.85 114.48,76.50 C106.29,89.15 93.68,108.50 86.46,119.50 C64.78,152.54 52.73,170.95 45.94,181.44 C42.40,186.91 36.71,195.66 33.31,200.88 C29.90,206.10 27.34,210.74 27.61,211.19 C27.89,211.63 51.01,212.00 78.99,212.00 C125.05,212.00 130.01,211.84 131.52,210.34 ZM 349.54 208.75 C350.57,203.92 351.76,203.00 357.00,203.00 C362.28,203.00 363.66,204.06 364.16,208.50 C364.49,211.41 364.67,211.51 370.37,211.80 L 376.24 212.11 L 375.54 208.30 C374.25,201.31 365.89,166.53 364.94,164.21 C364.06,162.06 363.53,161.93 356.28,162.21 L 348.56 162.50 L 345.92 174.00 C340.34,198.26 338.16,208.56 338.24,210.25 C338.32,211.68 339.28,212.00 343.59,212.00 C348.71,212.00 348.86,211.92 349.54,208.75 ZM 325.10 126.71 C326.97,125.45 329.07,123.24 329.77,121.78 C333.75,113.52 333.90,92.65 330.05,85.09 C327.01,79.14 323.00,77.01 314.83,77.00 C309.08,77.00 307.72,77.37 305.04,79.62 C300.01,83.85 298.79,87.33 298.24,98.95 C297.65,111.65 299.10,119.78 302.74,124.10 C306.09,128.08 308.16,128.86 315.60,128.94 C320.37,128.99 322.45,128.50 325.10,126.71 ZM 399.70 127.04 C401.46,125.97 403.59,123.76 404.43,122.14 C408.43,114.39 408.80,93.81 405.08,85.50 C402.13,78.90 399.87,77.55 391.15,77.17 C384.45,76.87 383.08,77.12 380.11,79.17 C373.68,83.60 370.80,96.50 372.91,111.43 C374.24,120.82 376.32,124.87 381.03,127.25 C385.89,129.70 395.52,129.59 399.70,127.04 ZM 359.00 107.50 L 359.50 87.50 L 364.00 87.00 L 368.50 86.50 L 368.50 82.50 L 368.50 78.50 L 361.00 77.84 C356.88,77.48 349.79,77.43 345.25,77.74 L 337.00 78.30 L 337.00 82.59 L 337.00 86.89 L 341.75 87.20 L 346.50 87.50 L 346.77 107.80 L 347.04 128.10 L 352.77 127.80 L 358.50 127.50 L 359.00 107.50 ZM 426.00 119.08 C426.00,108.27 426.42,107.00 429.95,107.00 C434.19,107.00 435.66,109.61 436.36,118.34 C436.71,122.65 437.24,126.58 437.55,127.09 C437.86,127.59 440.34,128.00 443.06,128.00 L 448.00 128.00 L 448.00 118.99 C448.00,110.35 447.88,109.86 445.00,106.84 C443.35,105.12 442.00,103.49 442.00,103.23 C442.00,102.98 443.35,101.23 445.00,99.35 C447.56,96.43 448.00,95.12 448.00,90.37 C448.00,85.36 447.65,84.45 444.57,81.37 L 441.14 77.94 L 427.82 78.22 L 414.50 78.50 L 414.23 101.98 C414.08,114.89 414.18,126.03 414.45,126.73 C414.76,127.54 416.92,128.00 420.47,128.00 L 426.00 128.00 L 426.00 119.08 ZM 485.80 124.41 C485.97,122.70 485.50,120.83 484.75,120.21 C484.01,119.60 479.83,118.96 475.45,118.80 L 467.50 118.50 L 467.19 113.67 C466.75,106.69 467.91,105.74 476.45,106.16 L 483.50 106.50 L 483.50 102.50 L 483.50 98.50 L 476.54 98.20 C472.71,98.03 469.00,97.42 468.29,96.83 C466.62,95.44 466.62,89.56 468.29,88.17 C469.01,87.58 472.94,86.96 477.04,86.80 L 484.50 86.50 L 484.50 82.50 L 484.50 78.50 L 470.25 78.22 C459.24,78.01 455.98,78.24 455.92,79.22 C455.85,80.28 455.90,124.80 455.98,127.28 C455.99,127.70 462.64,127.93 470.75,127.78 L 485.50 127.50 L 485.80 124.41 ZM 502.02 114.75 C502.04,93.72 504.10,93.54 509.80,114.09 L 513.53 127.50 L 520.26 127.80 L 527.00 128.09 L 527.00 103.51 C527.00,84.75 526.70,78.83 525.75,78.50 C525.06,78.26 522.70,77.94 520.50,77.78 L 516.50 77.50 L 516.22 91.82 C515.98,104.35 515.74,106.10 514.33,105.82 C513.35,105.62 512.21,103.56 511.39,100.50 C510.66,97.75 509.04,91.68 507.78,87.00 L 505.50 78.50 L 498.75 78.20 L 492.00 77.91 L 492.00 102.95 L 492.00 128.00 L 497.00 128.00 L 502.00 128.00 L 502.02 114.75 ZM 352.70 193.66 C352.06,192.00 353.78,179.65 355.13,176.17 C357.30,170.55 359.84,176.16 360.25,187.50 L 360.50 194.50 L 356.88 194.80 C354.42,195.01 353.08,194.64 352.70,193.66 ZM 311.60 119.83 C309.29,116.55 309.26,89.50 311.56,86.22 C313.39,83.60 317.19,83.32 319.13,85.65 C321.08,88.00 321.60,115.48 319.76,119.00 C317.97,122.42 313.71,122.85 311.60,119.83 ZM 386.58 120.09 C384.08,117.32 383.94,90.26 386.41,86.50 C388.41,83.45 391.06,83.30 393.60,86.10 C395.22,87.90 395.55,90.13 395.84,101.41 C396.24,116.73 394.93,122.00 390.71,122.00 C389.39,122.00 387.53,121.14 386.58,120.09 ZM 426.61 98.42 C426.27,97.55 426.00,94.64 426.00,91.95 C426.00,86.27 428.07,84.32 432.37,85.95 C437.16,87.77 438.33,93.04 434.93,97.37 C432.56,100.38 427.60,101.00 426.61,98.42 Z" fill="rgb(253,253,254)"/>
</g>
</svg>